<?xml version="1.0" encoding="utf-8"?>
<!-- Generator: Adobe Illustrator 24.0.3, SVG Export Plug-In . SVG Version: 6.00 Build 0)  -->
<svg version="1.1" id="Layer_1" focusable="false" xmlns="http://www.w3.org/2000/svg" xmlns:xlink="http://www.w3.org/1999/xlink"
	 x="0px" y="0px" viewBox="0 0 640 512" style="enable-background:new 0 0 640 512;" xml:space="preserve">
<style type="text/css">
	.st0{fill:#004680;}
</style>
<path class="st0" d="M598.9,244.6C624.1,232,640,206.2,640,178v-7.6c0-41.1-33.3-74.4-74.4-74.4c-32,0-60.4,20.5-70.6,50.9
	c-7.7,23-11.6,45.1-38.1,45.1H183.1c-27.4,0-31.6-25.5-38.1-45.1C134.8,116.5,106.4,96,74.4,96C33.3,96,0,129.3,0,170.4v7.6
	c0,28.2,15.9,53.9,41.1,66.5c9.4,4.7,9.4,18.2,0,22.9C15.9,280,0,305.8,0,334v7.6C0,382.7,33.3,416,74.4,416
	c32,0,60.4-20.5,70.6-50.9c7.7-23,11.6-45.1,38.1-45.1h273.9c27.4,0,31.6,25.5,38.1,45.1c10.1,30.4,38.6,50.9,70.6,50.9
	c41.1,0,74.4-33.3,74.4-74.4V334c0-28.2-15.9-53.9-41.1-66.5C589.5,262.7,589.5,249.3,598.9,244.6L598.9,244.6z"/>
</svg>
