<?xml version="1.0" encoding="utf-8"?>
<!-- Generator: Adobe Illustrator 24.0.3, SVG Export Plug-In . SVG Version: 6.00 Build 0)  -->
<svg version="1.1" id="Layer_1" focusable="false" xmlns="http://www.w3.org/2000/svg" xmlns:xlink="http://www.w3.org/1999/xlink"
	 x="0px" y="0px" viewBox="0 0 448 512" style="enable-background:new 0 0 448 512;" xml:space="preserve">
<style type="text/css">
	.st0{fill:#FFFFFF;}
</style>
<path class="st0" d="M368,96h-48V56c0-13.3-10.7-24-24-24H24C10.7,32,0,42.7,0,56v400c0,13.3,10.7,24,24,24h272
	c13.3,0,24-10.7,24-24v-42.1l80.6-36c28.8-12.9,47.4-41.5,47.4-73.1V176C448,131.9,412.1,96,368,96z M203.7,326
	c12.1,4.1,20.3,15.4,20.3,28.2c0,16.4-13.3,29.8-29.8,29.8h-3.1c-11.3,0-21.6-6.4-26.6-16.4c-1.9-3.8-7.3-3.8-9.2,0
	c-5,10.1-15.3,16.4-26.6,16.4h-3.1c-16.4,0-29.8-13.3-29.8-29.8c0-12.8,8.2-24.2,20.3-28.2c7.8-2.6,18.1-4.3,18.1-15.2V201.2
	c0-10.6-8.8-12.2-18.1-15.2c-12.1-4.1-20.3-15.4-20.3-28.2c0-16.4,13.3-29.8,29.8-29.8h3.1c11.3,0,21.6,6.4,26.6,16.4
	c1.9,3.8,7.3,3.8,9.2,0c5-10.1,15.3-16.4,26.6-16.4h3.1c16.4,0,29.8,13.3,29.8,29.8c0,12.8-8.2,24.2-20.3,28.2
	c-7.8,2.6-18.1,4.3-18.1,15.2v109.5C185.6,321.4,194.4,322.9,203.7,326z M384,304.9c0,6.3-3.7,12-9.5,14.6L320,343.8V160h48
	c8.8,0,16,7.2,16,16V304.9z"/>
</svg>
