<?xml version="1.0" encoding="utf-8"?>
<!-- Generator: Adobe Illustrator 24.0.3, SVG Export Plug-In . SVG Version: 6.00 Build 0)  -->
<svg version="1.1" id="Layer_1" focusable="false" xmlns="http://www.w3.org/2000/svg" xmlns:xlink="http://www.w3.org/1999/xlink"
	 x="0px" y="0px" viewBox="0 0 128 128" style="enable-background:new 0 0 128 128;" xml:space="preserve">
<style type="text/css">
	.st0{opacity:5.000000e-02;}
</style>
<path class="st0" d="M64-3C56.6-3,46,8.5,46,15.8c0,3.3,2.5,5.2,6.7,5.2c4.6,0,7.6-2.4,11.3-2.4c3.7,0,6.7,2.4,11.3,2.4
	c4.2,0,6.7-2,6.7-5.2C82,8.5,71.4-3,64-3z M50.2-4.2c-1-3.2-4-5.4-6.7-4.7c-2.7,0.7-4.2,3.8-3.2,7.1s4,5.4,6.7,4.7
	C49.7,2.2,51.2-0.9,50.2-4.2L50.2-4.2z M58.1-6.1c2.9-0.8,4.4-4.7,3.2-8.8s-4.4-6.8-7.3-6c-2.9,0.8-4.4,4.7-3.2,8.8
	C52-8,55.2-5.4,58.1-6.1z M84.5-8.9c-2.7-0.7-5.7,1.5-6.7,4.7c-1,3.2,0.4,6.4,3.2,7.1s5.7-1.5,6.7-4.7C88.7-5.1,87.2-8.2,84.5-8.9
	L84.5-8.9z M69.9-6.1c2.9,0.8,6.2-1.9,7.3-6c1.1-4.1-0.3-8-3.2-8.8c-2.9-0.8-6.2,1.9-7.3,6S67-6.9,69.9-6.1z"/>
<path class="st0" d="M64,125c-7.4,0-18,11.5-18,18.8c0,3.3,2.5,5.2,6.7,5.2c4.6,0,7.6-2.4,11.3-2.4c3.7,0,6.7,2.4,11.3,2.4
	c4.2,0,6.7-2,6.7-5.2C82,136.5,71.4,125,64,125z M50.2,123.8c-1-3.2-4-5.4-6.7-4.7c-2.7,0.7-4.2,3.8-3.2,7.1c1,3.2,4,5.4,6.7,4.7
	C49.7,130.2,51.2,127.1,50.2,123.8L50.2,123.8z M58.1,121.9c2.9-0.8,4.4-4.7,3.2-8.8c-1.1-4.1-4.4-6.8-7.3-6
	c-2.9,0.8-4.4,4.7-3.2,8.8C52,120,55.2,122.6,58.1,121.9z M84.5,119.1c-2.7-0.7-5.7,1.5-6.7,4.7c-1,3.2,0.4,6.4,3.2,7.1
	s5.7-1.5,6.7-4.7C88.7,122.9,87.2,119.8,84.5,119.1L84.5,119.1z M69.9,121.9c2.9,0.8,6.2-1.9,7.3-6c1.1-4.1-0.3-8-3.2-8.8
	c-2.9-0.8-6.2,1.9-7.3,6S67,121.1,69.9,121.9z"/>
<path class="st0" d="M0,61c-7.4,0-18,11.5-18,18.8c0,3.3,2.5,5.2,6.7,5.2c4.6,0,7.6-2.4,11.3-2.4c3.7,0,6.7,2.4,11.3,2.4
	c4.2,0,6.7-2,6.7-5.2C18,72.5,7.4,61,0,61z M-13.8,59.8c-1-3.2-4-5.4-6.7-4.7c-2.7,0.7-4.2,3.8-3.2,7.1c1,3.2,4,5.4,6.7,4.7
	C-14.3,66.2-12.8,63.1-13.8,59.8L-13.8,59.8z M-5.9,57.9c2.9-0.8,4.4-4.7,3.2-8.8s-4.4-6.8-7.3-6c-2.9,0.8-4.4,4.7-3.2,8.8
	S-8.8,58.6-5.9,57.9z M20.5,55.1c-2.7-0.7-5.7,1.5-6.7,4.7c-1,3.2,0.4,6.4,3.2,7.1c2.7,0.7,5.7-1.5,6.7-4.7
	C24.7,58.9,23.2,55.8,20.5,55.1L20.5,55.1z M5.9,57.9c2.9,0.8,6.2-1.9,7.3-6s-0.3-8-3.2-8.8s-6.2,1.9-7.3,6S3,57.1,5.9,57.9z"/>
<path class="st0" d="M128,61c-7.4,0-18,11.5-18,18.8c0,3.3,2.5,5.2,6.7,5.2c4.6,0,7.6-2.4,11.3-2.4c3.7,0,6.7,2.4,11.3,2.4
	c4.2,0,6.7-2,6.7-5.2C146,72.5,135.4,61,128,61z M114.2,59.8c-1-3.2-4-5.4-6.7-4.7c-2.7,0.7-4.2,3.8-3.2,7.1c1,3.2,4,5.4,6.7,4.7
	C113.7,66.2,115.2,63.1,114.2,59.8L114.2,59.8z M122.1,57.9c2.9-0.8,4.4-4.7,3.2-8.8c-1.1-4.1-4.4-6.8-7.3-6s-4.4,4.7-3.2,8.8
	C116,56,119.2,58.6,122.1,57.9z M148.5,55.1c-2.7-0.7-5.7,1.5-6.7,4.7c-1,3.2,0.4,6.4,3.2,7.1c2.7,0.7,5.7-1.5,6.7-4.7
	C152.7,58.9,151.2,55.8,148.5,55.1L148.5,55.1z M133.9,57.9c2.9,0.8,6.2-1.9,7.3-6c1.1-4.1-0.3-8-3.2-8.8s-6.2,1.9-7.3,6
	S131,57.1,133.9,57.9z"/>
</svg>
