<?xml version="1.0" encoding="utf-8"?>
<!-- Generator: Adobe Illustrator 24.0.3, SVG Export Plug-In . SVG Version: 6.00 Build 0)  -->
<svg version="1.1" id="Layer_1" focusable="false" xmlns="http://www.w3.org/2000/svg" xmlns:xlink="http://www.w3.org/1999/xlink"
	 x="0px" y="0px" viewBox="0 0 512 512" style="enable-background:new 0 0 512 512;" xml:space="preserve">
<style type="text/css">
	.st0{fill:#004680;}
</style>
<path class="st0" d="M256,224c-79.4,0-192,122.8-192,200.2c0,34.9,26.8,55.8,71.7,55.8c48.8,0,81.1-25.1,120.3-25.1
	c39.5,0,71.9,25.1,120.3,25.1c44.9,0,71.7-20.9,71.7-55.8C448,346.8,335.4,224,256,224z M108.7,211.4
	c-10.4-34.7-42.4-57.1-71.6-50.1c-29.1,7-44.3,40.7-33.9,75.3s42.4,57.1,71.6,50.1C104,279.8,119.1,246,108.7,211.4L108.7,211.4z
	 M193.4,190.6c30.9-8.1,46.4-49.9,34.6-93.4s-46.5-72-77.5-63.9s-46.4,49.9-34.6,93.4S162.5,198.8,193.4,190.6z M474.8,161.3
	c-29.1-7-61.1,15.5-71.6,50.1c-10.4,34.7,4.8,68.4,33.9,75.3c29.1,7,61.1-15.5,71.6-50.1C519.1,202,504,168.2,474.8,161.3
	L474.8,161.3z M318.6,190.6c30.9,8.1,65.6-20.4,77.5-63.9s-3.6-85.2-34.6-93.4S295.8,53.8,284,97.2S287.6,182.5,318.6,190.6z"/>
</svg>
